<?xml version="1.0" encoding="UTF-8"?>
<svg version="1.1" xmlns="http://www.w3.org/2000/svg" width="272" height="240">
<path d="M0 0 C89.76 0 179.52 0 272 0 C272 79.2 272 158.4 272 240 C182.24 240 92.48 240 0 240 C0 160.8 0 81.6 0 0 Z " fill="#000000" transform="translate(0,0)"/>
<path d="M0 0 C0.79289932 -0.0033284 1.58579865 -0.0066568 2.40272522 -0.01008606 C4.08317483 -0.01515851 5.76363454 -0.01749429 7.4440918 -0.01733398 C10.02083884 -0.01951911 12.59715701 -0.03766734 15.17382812 -0.05664062 C16.80338395 -0.0595747 18.43294181 -0.0615594 20.0625 -0.0625 C20.83649643 -0.06968552 21.61049286 -0.07687103 22.40794373 -0.08427429 C27.86883372 -0.06085378 27.86883372 -0.06085378 30.09765625 2.16796875 C30.30962639 4.86912782 30.40163304 7.46521413 30.3984375 10.16796875 C30.40272263 10.95945312 30.40700775 11.7509375 30.41142273 12.56640625 C30.41716923 14.24087568 30.41766393 15.91537007 30.41333008 17.58984375 C30.41016854 20.15798287 30.43362935 22.72497205 30.45898438 25.29296875 C30.46125711 26.91796729 30.46196098 28.54296894 30.4609375 30.16796875 C30.47014725 30.93882813 30.47935699 31.7096875 30.48884583 32.50390625 C30.4699707 34.66796875 30.4699707 34.66796875 30.09765625 38.16796875 C27.09765625 40.16796875 27.09765625 40.16796875 24.47265625 39.85546875 C22.09765625 39.16796875 22.09765625 39.16796875 21.09765625 38.16796875 C20.94110598 36.68157883 20.84698682 35.18847748 20.78125 33.6953125 C20.7184082 32.34663086 20.7184082 32.34663086 20.65429688 30.97070312 C20.61498047 30.02517578 20.57566406 29.07964844 20.53515625 28.10546875 C20.49197266 27.15607422 20.44878906 26.20667969 20.40429688 25.22851562 C20.29786349 22.87515522 20.19584617 20.52168521 20.09765625 18.16796875 C19.26715759 19.00290863 18.43665894 19.83784851 17.58099365 20.6980896 C9.75848677 28.56111773 1.93072106 36.41887645 -5.90224075 44.2714901 C-9.92919185 48.30888396 -13.95425903 52.34811952 -17.97509766 56.39160156 C-21.85457132 60.29278576 -25.7388922 64.18908211 -29.62664032 68.08201981 C-31.10996383 69.56904227 -32.59152419 71.05782561 -34.07129669 72.54838181 C-36.14219256 74.63376853 -38.21923563 76.71283954 -40.29785156 78.79052734 C-40.90996994 79.40983627 -41.52208832 80.0291452 -42.15275574 80.66722107 C-42.72200272 81.23371872 -43.29124969 81.80021637 -43.87774658 82.38388062 C-44.36814045 82.87611807 -44.85853432 83.36835552 -45.3637886 83.87550926 C-47.89801392 86.00437904 -49.90866086 87.24119619 -53.2512207 86.99487305 C-54.12222412 86.82898682 -54.99322754 86.66310059 -55.890625 86.4921875 C-65.18517758 85.35885125 -73.38505784 85.37421744 -81.14257812 91.0234375 C-85.70508354 94.67736868 -89.85648187 98.70458902 -93.96484375 102.85546875 C-94.656315 103.53556 -95.34778625 104.21565125 -96.06021118 104.91635132 C-105.63877285 114.398655 -105.63877285 114.398655 -109.1640625 126.9609375 C-109.11080811 128.07106201 -109.05755371 129.18118652 -109.00268555 130.32495117 C-108.9007696 133.2125696 -109.09460547 134.41858793 -110.65234375 136.79296875 C-111.76609375 137.96859375 -111.76609375 137.96859375 -112.90234375 139.16796875 C-113.89234375 140.34359375 -113.89234375 140.34359375 -114.90234375 141.54296875 C-119.74762168 144.16749429 -124.52607166 143.99399201 -129.90234375 143.16796875 C-133.74924732 141.52410803 -136.10244014 139.07108573 -138.83984375 135.98046875 C-140.75392125 130.91379302 -140.46738722 125.65416002 -139.27734375 120.41796875 C-136.75834446 116.29596991 -134.38779906 112.83539744 -129.53125 111.53125 C-125.60077064 111.07060021 -122.5194201 111.00152328 -118.66381836 112.04150391 C-114.6986083 112.17481856 -114.32199637 112.15826683 -111.52148438 109.7746582 C-110.34599448 108.63158613 -109.19266194 107.46542887 -108.05859375 106.28125 C-107.44463745 105.66783249 -106.83068115 105.05441498 -106.19812012 104.42240906 C-104.90792678 103.12452816 -103.62752111 101.81685341 -102.35644531 100.50024414 C-100.40368145 98.48185141 -98.41833663 96.5005234 -96.42578125 94.52148438 C-95.17631131 93.25595068 -93.92884288 91.98843707 -92.68359375 90.71875 C-92.08792603 90.12379227 -91.4922583 89.52883453 -90.87854004 88.91584778 C-89.04644327 87.05692482 -89.04644327 87.05692482 -86.90234375 84.16796875 C-87.35631594 79.54888458 -90.66346503 76.81096451 -93.73828125 73.6171875 C-94.33226715 72.99898636 -94.92625305 72.38078522 -95.53823853 71.74385071 C-96.79972112 70.4409136 -98.06591442 69.14252325 -99.33642578 67.84838867 C-100.62619889 66.52405938 -101.90246532 65.18643502 -103.16455078 63.83569336 C-110.02001671 55.88504673 -110.02001671 55.88504673 -119.13427734 51.57495117 C-122.03804773 51.79551841 -122.03804773 51.79551841 -124.63183594 52.57177734 C-127.2070955 53.24799066 -128.33348617 53.08366348 -130.77734375 52.10546875 C-135.28042687 49.31355722 -138.18896632 46.30810104 -139.90234375 41.16796875 C-140.27060599 35.55196959 -140.11790382 31.99130886 -136.90234375 27.16796875 C-133.16918054 23.39400594 -129.98207782 21.32492981 -124.58984375 20.91796875 C-119.08548575 21.29114556 -115.51925349 23.27836979 -111.52734375 26.98046875 C-109.42368094 29.57118477 -108.85734295 30.66558765 -109.16015625 34.04614258 C-109.40378906 35.693927 -109.40378906 35.693927 -109.65234375 37.375 C-109.78600672 45.61238179 -106.1848163 49.80539149 -100.68447876 55.65171814 C-99.28263134 57.07968088 -97.86708879 58.49431291 -96.43896484 59.89599609 C-94.29003137 62.03036711 -92.25495722 64.24210309 -90.2109375 66.4765625 C-83.59814894 73.33252156 -78.01887494 77.92791068 -68.23477173 78.53616333 C-60.30074961 78.57590438 -54.99669035 78.26089206 -49.16268921 72.51654053 C-48.41677521 71.74151184 -47.67086121 70.96648315 -46.90234375 70.16796875 C-45.91689625 69.19494774 -44.92842593 68.22498271 -43.93765259 67.25738525 C-40.33416735 63.72657519 -36.77462094 60.15290974 -33.21484375 56.578125 C-31.90370274 55.26511569 -30.59233838 53.95232938 -29.28076172 52.63975525 C-25.85257138 49.20777219 -22.42739653 45.77279526 -19.00286865 42.3371582 C-15.49854171 38.82254688 -11.99133292 35.31081386 -8.484375 31.79882812 C-1.62089518 24.92466831 5.23939826 18.04733806 12.09765625 11.16796875 C11.50750732 11.15862305 10.9173584 11.14927734 10.30932617 11.13964844 C7.6337542 11.08594218 4.95993072 11.00230023 2.28515625 10.91796875 C1.35638672 10.90378906 0.42761719 10.88960937 -0.52929688 10.875 C-1.42197266 10.84277344 -2.31464844 10.81054688 -3.234375 10.77734375 C-4.05655518 10.75639648 -4.87873535 10.73544922 -5.72583008 10.71386719 C-7.90234375 10.16796875 -7.90234375 10.16796875 -9.7409668 8.29785156 C-10.90234375 6.16796875 -10.90234375 6.16796875 -10.15234375 3.48046875 C-7.72751309 -1.00546798 -4.69327547 0.00673022 0 0 Z " fill="#EBEBEB" transform="translate(190.90234375,37.83203125)"/>
<path d="M0 0 C6.6478971 0.34202294 10.41946841 5.80127748 14.8125 10.25 C15.69615234 11.10980469 16.57980469 11.96960938 17.49023438 12.85546875 C18.74223633 14.11037109 18.74223633 14.11037109 20.01953125 15.390625 C21.16578979 16.5357959 21.16578979 16.5357959 22.33520508 17.70410156 C24 20 24 20 24.49536133 22.49780273 C23.45560272 27.74989043 18.56182512 31.18784275 14.875 34.8125 C14.0190625 35.69615234 13.163125 36.57980469 12.28125 37.49023438 C11.44335938 38.32490234 10.60546875 39.15957031 9.7421875 40.01953125 C8.9776123 40.78370361 8.21303711 41.54787598 7.42529297 42.33520508 C4.38123546 44.42473881 2.62117322 44.47850994 -1 44 C-3 42 -3 42 -3.125 39.375 C-1.89723746 35.69171238 -0.67893364 34.43992608 2.0703125 31.7890625 C2.80266113 31.0770166 3.53500977 30.3649707 4.28955078 29.63134766 C4.85399902 29.09300293 5.41844727 28.5546582 6 28 C0.62917958 27.77580063 -4.7388622 27.61342945 -10.11328125 27.50561523 C-11.93700655 27.46063474 -13.76041242 27.39942375 -15.58300781 27.32104492 C-28.06427518 26.4921407 -28.06427518 26.4921407 -38.74609375 32.046875 C-40.1974196 33.66867253 -41.61726975 35.31933614 -43 37 C-44.41413203 38.35762405 -45.84458733 39.69850751 -47.29296875 41.01953125 C-48.59355731 42.28137338 -49.8917789 43.54566022 -51.1875 44.8125 C-51.86619141 45.45380859 -52.54488281 46.09511719 -53.24414062 46.75585938 C-53.87900391 47.37912109 -54.51386719 48.00238281 -55.16796875 48.64453125 C-55.73797607 49.19471924 -56.3079834 49.74490723 -56.89526367 50.31176758 C-58.19505505 51.93654497 -58.19505505 51.93654497 -57.90234375 53.95068359 C-55.9768654 58.32364498 -52.13265839 61.46474262 -48.8125 64.8125 C-48.05646484 65.61365234 -47.30042969 66.41480469 -46.52148438 67.24023438 C-42.39169262 71.7519118 -42.39169262 71.7519118 -36.75390625 73.0390625 C-35.84511719 72.69617188 -34.93632812 72.35328125 -34 72 C-28.38526083 71.304758 -24.27815557 71.30056506 -19.5625 74.6875 C-15.00041227 78.65974205 -12.87685689 81.6895476 -12.4375 87.8125 C-12.59905737 92.73265632 -14.03325918 95.67655602 -17.23828125 99.3671875 C-21.4231314 103.2458291 -25.43608567 104.26482416 -31 104.0625 C-36.27640317 103.33860322 -39.63702465 101.07951839 -43 97 C-45.06295958 93.66777617 -45.07088464 91.30902841 -44.97265625 87.44140625 C-45.54332633 79.22100988 -50.61037503 75.18219705 -56.4375 69.9375 C-57.43030559 69.00859988 -58.42056553 68.07697116 -59.40820312 67.14257812 C-61.21250003 65.44010665 -63.02889727 63.75030075 -64.86108398 62.07788086 C-67.3993224 59.61207249 -68.84605116 57.82747501 -69.5 54.3125 C-68.17198165 45.51437845 -58.98364098 38.70424369 -52.88549805 32.6796875 C-51.29993521 31.11258147 -49.72272122 29.53741838 -48.14648438 27.9609375 C-38.29046865 18.15280297 -38.29046865 18.15280297 -34.96882629 17.75949097 C-33.80633614 17.7661528 -33.80633614 17.7661528 -32.62036133 17.77294922 C-31.29933159 17.77317581 -31.29933159 17.77317581 -29.95161438 17.77340698 C-29.00465195 17.78372955 -28.05768951 17.79405212 -27.08203125 17.8046875 C-26.10965012 17.8075174 -25.13726898 17.81034729 -24.13542175 17.81326294 C-21.02765634 17.82446401 -17.92017841 17.84956852 -14.8125 17.875 C-12.70638437 17.88502989 -10.60026422 17.89415573 -8.49414062 17.90234375 C-3.3293162 17.92440312 1.83529315 17.95893254 7 18 C7 17.34 7 16.68 7 16 C6.01 15.67 5.02 15.34 4 15 C1.26185953 12.46221127 -0.92595707 10.1110644 -3 7 C-2.6758631 3.67759676 -2.39223697 2.39223697 0 0 Z " fill="#ECECEB" transform="translate(211,98)"/>
<path d="M0 0 C0.66 0.33 1.32 0.66 2 1 C0.02 1.99 0.02 1.99 -2 3 C-1.34 2.01 -0.68 1.02 0 0 Z M-3 3 C-2.67 3.66 -2.34 4.32 -2 5 C-2.66 4.67 -3.32 4.34 -4 4 C-3.67 3.67 -3.34 3.34 -3 3 Z M-6 6 C-6 9 -6 9 -8 11.1875 C-8.66 11.785625 -9.32 12.38375 -10 13 C-10.66 12.67 -11.32 12.34 -12 12 C-10.02 10.02 -8.04 8.04 -6 6 Z M-13 13 C-13 16 -13 16 -15.3125 18.5625 C-18 21 -18 21 -21 23 C-19.34908222 18.70761377 -16.26245434 16.1206085 -13 13 Z " fill="#F4F4F4" transform="translate(104,122)"/>
</svg>
